<svg xmlns="http://www.w3.org/2000/svg" viewBox="0 0 256 256" width="256" height="256">
  <defs>
    <linearGradient id="bg" x1="0%" y1="0%" x2="100%" y2="100%">
      <stop offset="0%" style="stop-color:#1e1e1e"/>
      <stop offset="100%" style="stop-color:#252526"/>
    </linearGradient>
    <linearGradient id="accent" x1="0%" y1="0%" x2="100%" y2="0%">
      <stop offset="0%" style="stop-color:#0098ff"/>
      <stop offset="100%" style="stop-color:#007acc"/>
    </linearGradient>
  </defs>

  <!-- Background rounded square -->
  <rect x="8" y="8" width="240" height="240" rx="28" ry="28" fill="url(#bg)"/>

  <!-- VSCode-style bottom panel area -->
  <rect x="24" y="56" width="208" height="176" rx="8" ry="8" fill="#1e1e1e" stroke="#3c3c3c" stroke-width="1.5"/>

  <!-- Tab bar -->
  <rect x="24" y="56" width="208" height="32" rx="8" ry="0" fill="#2d2d2d"/>
  <rect x="24" y="76" width="208" height="12" fill="#2d2d2d"/>

  <!-- Active tab -->
  <rect x="24" y="56" width="96" height="32" rx="8" ry="0" fill="#1e1e1e"/>
  <rect x="24" y="76" width="96" height="12" fill="#1e1e1e"/>
  <!-- Active tab bottom border (VSCode blue accent) -->
  <rect x="24" y="86" width="96" height="2" fill="#007acc"/>

  <!-- Tab icon: terminal symbol -->
  <polyline points="36,66 44,72 36,78" fill="none" stroke="#cccccc" stroke-width="2" stroke-linecap="round" stroke-linejoin="round"/>
  <text x="50" y="77" font-family="Segoe UI, Arial, sans-serif" font-size="11" fill="#cccccc" font-weight="500">TERMINAL</text>

  <!-- Inactive tab -->
  <text x="134" y="77" font-family="Segoe UI, Arial, sans-serif" font-size="11" fill="#6e6e6e">OUTPUT</text>

  <!-- Terminal content area -->
  <!-- Prompt line 1 -->
  <text x="36" y="116" font-family="Consolas, monospace" font-size="13" fill="#6a9955">~</text>
  <text x="48" y="116" font-family="Consolas, monospace" font-size="13" fill="#cccccc">$</text>
  <text x="62" y="116" font-family="Consolas, monospace" font-size="13" fill="#ce9178">npm run build</text>

  <!-- Output lines -->
  <text x="36" y="138" font-family="Consolas, monospace" font-size="11" fill="#608b4e">✓</text>
  <text x="50" y="138" font-family="Consolas, monospace" font-size="11" fill="#858585">compiled successfully</text>

  <text x="36" y="156" font-family="Consolas, monospace" font-size="11" fill="#608b4e">✓</text>
  <text x="50" y="156" font-family="Consolas, monospace" font-size="11" fill="#858585">tests passed</text>

  <!-- Current prompt line -->
  <text x="36" y="182" font-family="Consolas, monospace" font-size="13" fill="#6a9955">~</text>
  <text x="48" y="182" font-family="Consolas, monospace" font-size="13" fill="#cccccc">$</text>

  <!-- Blinking cursor -->
  <rect x="62" y="170" width="8" height="16" rx="1" fill="#007acc">
    <animate attributeName="opacity" values="1;0.3;1" dur="1s" repeatCount="indefinite"/>
  </rect>

  <!-- MCP connection dot top-right -->
  <circle cx="216" cy="68" r="4" fill="#28c840"/>

  <!-- Bottom status bar -->
  <rect x="24" y="220" width="208" height="12" rx="0" ry="0" fill="#007acc"/>
  <text x="32" y="229" font-family="Segoe UI, Arial, sans-serif" font-size="8" fill="#ffffff">MCP: 1 session</text>
  <text x="184" y="229" font-family="Segoe UI, Arial, sans-serif" font-size="8" fill="#ffffff">bash</text>
</svg>
